<?xml version="1.0" standalone="no"?>
<!DOCTYPE svg PUBLIC "-//W3C//DTD SVG 20010904//EN"
 "http://www.w3.org/TR/2001/REC-SVG-20010904/DTD/svg10.dtd">
<svg version="1.0" xmlns="http://www.w3.org/2000/svg"
 width="270.000000pt" height="413.000000pt" viewBox="0 0 270.000000 413.000000"
 preserveAspectRatio="xMidYMid meet">

<g transform="translate(0.000000,413.000000) scale(0.100000,-0.100000)"
fill="#000000" stroke="none">
<path d="M0 2065 l0 -2065 1350 0 1350 0 0 774 0 775 -42 3 -43 3 -3 48 -3 47
45 0 46 0 0 1240 0 1240 -1350 0 -1350 0 0 -2065z m781 505 c177 -46 324 -157
388 -293 84 -179 79 -394 -12 -550 -29 -49 -128 -157 -144 -157 -6 0 -22 -11
-37 -25 -23 -21 -26 -28 -16 -40 7 -8 18 -15 24 -15 23 0 116 -95 150 -153 58
-98 71 -155 70 -302 -1 -108 -4 -139 -22 -184 -59 -150 -179 -278 -317 -340
-68 -30 -139 -41 -266 -41 -112 0 -139 3 -201 25 -137 48 -229 129 -293 259
-38 77 -71 212 -61 251 6 22 12 25 50 25 38 0 45 -3 54 -28 6 -15 14 -49 17
-77 4 -27 20 -77 37 -111 73 -150 228 -244 400 -244 80 0 98 4 208 42 160 55
273 218 287 412 11 165 -61 324 -174 382 -21 10 -40 22 -43 25 -9 10 -144 39
-182 39 -42 0 -68 21 -68 55 0 40 25 55 93 55 56 0 90 9 188 48 78 31 167 159
195 280 46 206 -57 431 -237 519 -111 54 -266 77 -356 53 -170 -46 -304 -185
-328 -340 -13 -82 -50 -110 -107 -79 -18 10 -20 17 -14 60 28 212 164 384 352
448 83 28 261 29 365 1z m954 -10 c22 -6 64 -19 92 -27 72 -20 225 -99 297
-153 80 -58 194 -174 240 -244 148 -223 205 -463 177 -741 -42 -419 -309 -761
-691 -887 -139 -46 -172 -50 -377 -49 -108 1 -200 4 -205 7 -11 7 -10 150 2
634 6 223 14 641 18 930 4 289 11 531 16 539 7 10 46 12 200 8 107 -2 209 -10
231 -17z"/>
<path d="M1429 2474 c-22 -7 -28 -50 -28 -234 -2 -285 -20 -1393 -26 -1523 -4
-91 -2 -133 6 -143 16 -20 232 -19 319 2 410 96 694 420 728 832 28 325 -61
586 -272 798 -123 123 -252 197 -425 244 -64 18 -269 34 -302 24z m578 -928
c28 -32 28 -43 5 -77 -20 -30 -96 -99 -108 -99 -5 0 -33 23 -62 52 -49 48 -53
55 -50 92 4 52 27 64 120 61 64 -2 74 -5 95 -29z"/>
</g>
</svg>
